<?xml version="1.0" encoding="UTF-8"?>
<svg xmlns:xodm="http://www.corel.com/coreldraw/odm/2003" xmlns="http://www.w3.org/2000/svg" xmlns:xlink="http://www.w3.org/1999/xlink" version="1.1" id="Layer_1" x="0px" y="0px" viewBox="0 0 2500 2500" style="enable-background:new 0 0 2500 2500;" xml:space="preserve">
<style type="text/css">
	.st0{fill-rule:evenodd;clip-rule:evenodd;fill:#0090FF;}
	.st1{fill-rule:evenodd;clip-rule:evenodd;fill:#FFFFFF;}
</style>
<g id="Layer_x0020_1">
	<path class="st0" d="M1250,2500C562.5,2500,0,1937.5,0,1243.8C6.2,556.3,562.5-6.2,1256.2,0.1C1943.8,6.3,2500,562.5,2500,1262.5   C2493.8,1943.8,1937.5,2500,1250,2500z"></path>
	<g>
		<path class="st1" d="M1368.8,1100l-37.5,200l356.2,50l-25,93.8l-350-50c-25,81.2-37.5,168.8-68.8,243.8    c-31.2,87.5-62.5,175-100,256.2c-50,106.2-137.5,181.2-256.2,200c-68.8,12.5-143.8,6.2-200-37.5c-18.8-12.5-37.5-37.5-37.5-56.2    c0-25,12.5-56.2,31.2-68.8c12.5-6.2,43.8,0,62.5,6.3c18.8,18.8,37.5,43.8,50,68.7c37.5,50,87.5,56.2,137.5,18.8    c56.2-50,87.5-118.8,106.2-187.5c37.5-150,75-293.7,106.2-443.7v-25l-331.2-50L825,1225l343.8,50l43.8-193.8L856.2,1025l12.5-100    l368.8,50c12.5-37.5,18.8-68.8,31.2-100c31.2-112.5,62.5-225,137.5-325s162.5-162.5,293.8-156.2c56.2,0,112.5,18.8,150,62.5    c6.2,6.2,18.8,18.8,18.8,31.2c0,25,0,56.2-18.8,75c-25,18.8-56.2,12.5-81.2-12.5c-18.8-18.8-31.2-37.5-50-56.2    c-37.5-50-93.8-56.2-137.5-12.5c-31.2,31.2-62.5,75-81.2,118.8c-43.8,131.2-75,268.8-118.8,406.2l343.8,50l-25,93.8L1368.8,1100    L1368.8,1100z M1368.8,1100L1368.8,1100L1368.8,1100z"></path>
	</g>
</g>
</svg>
